<?xml version="1.0" encoding="utf-8"?>
<!-- Generator: Adobe Illustrator 16.0.0, SVG Export Plug-In . SVG Version: 6.00 Build 0)  -->
<!DOCTYPE svg PUBLIC "-//W3C//DTD SVG 1.1//EN" "http://www.w3.org/Graphics/SVG/1.1/DTD/svg11.dtd">
<svg version="1.1" id="Capa_1" xmlns="http://www.w3.org/2000/svg" xmlns:xlink="http://www.w3.org/1999/xlink" x="0px" y="0px"
	 width="351.167px" height="86.333px" viewBox="0 0 351.167 86.333" enable-background="new 0 0 351.167 86.333"
	 xml:space="preserve">
<path d="M35.137,51.012c0-1.559-0.699-3.901-1.553-5.206L6.313,10.651C5.459,9.347,6.035,8.28,7.594,8.28h4.924
	c2.71,0,2.936,0.163,3.059,0.361s22.221,28.911,22.221,28.911c0.823,1.324,2.185,1.333,3.026,0.021c0,0,24.803-28.627,24.955-28.863
	c0.151-0.236,0.325-0.43,3.109-0.43h4.33c1.559,0,2.135,1.067,1.281,2.371L45.006,45.806c-0.854,1.304-1.553,3.646-1.553,5.206
	v24.525c0,1.559-1.275,2.834-2.834,2.834h-2.647c-1.559,0-2.834-1.275-2.834-2.834V51.012z"/>
<path d="M126.407,11.115c0-1.559,1.275-2.834,2.834-2.834h4.825c1.559,0,3.564,1.046,4.456,2.325l37.347,53.561
	c0.892,1.279,1.666,2.325,1.72,2.325c0.055,0,0.099-1.275,0.099-2.834V11.115c0-1.559,1.275-2.834,2.834-2.834h2.647
	c1.559,0,2.834,1.275,2.834,2.834v64.422c0,1.559-1.275,2.834-2.834,2.834h-4.825c-1.559,0-3.564-1.046-4.456-2.325l-37.348-53.561
	c-0.892-1.279-1.666-2.325-1.72-2.325c-0.054,0-0.099,1.275-0.099,2.834v8.338c0,1.559-0.123,3.625-1.682,3.625
	c0,0-6.634-6.941-6.634-8.5V11.115z"/>
<path fill="#EC652C" d="M260.007,73.62c-8.02,4.455-17.127,6.534-26.235,6.534c-21.779,0-37.421-14.851-37.421-36.828
	c0-22.077,16.731-36.827,37.719-36.827c9.206,0,18.116,2.475,24.749,9.207l-4.279,4.483c-1.076,1.128-2.077,0.929-3.373,0.062
	c0,0-10.564-6.03-17.692-6.03c-16.038,0-28.214,12.078-28.214,29.105c0,16.731,11.781,29.106,29.006,29.106
	c5.644,0,12.276-1.485,17.424-4.06V49.725c0-1.559-1.275-2.834-2.834-2.834h-10.468c-1.559,0-2.834-1.275-2.834-2.834v-2.053
	c0-1.559,1.275-2.834,2.834-2.834h18.784c1.559,0,2.834,1.275,2.834,2.834V73.62z"/>
<path fill="#EC652C" d="M271.754,43.326c0-21.186,15.345-36.827,36.629-36.827c21.285,0,36.63,15.642,36.63,36.827
	c0,21.187-15.345,36.828-36.63,36.828C287.099,80.154,271.754,64.512,271.754,43.326z M336.103,43.326
	c0-16.137-11.285-29.105-27.72-29.105c-16.434,0-27.72,12.969-27.72,29.105s11.286,29.106,27.72,29.106
	C324.818,72.432,336.103,59.462,336.103,43.326z"/>
<path d="M130.305,46.194L97.21,9.668c-2.079-2.079-4.222-2.074-6.322,0.025L59.072,46.336l-0.105,0.103
	c-0.134,0.132-0.267,0.264-0.386,0.4c-0.899,1.015-1.227,2.387-0.877,3.669c0.349,1.281,1.325,2.295,2.612,2.713
	c1.521,0.496,2.955,0.094,4.269-1.223c8.107-8.118,29.478-34.31,29.478-34.31S106.547,31.37,112.146,37
	c0.003,0.02,0.006,0.04,0.006,0.055c0.015,10.339,0.015,19.479,0.015,29.818v3.73H75.96l0.001-3.845
	c0.001-6.29,0.003-4.373-0.025-10.663c-0.003-0.862-0.292-1.824-0.771-2.574c-0.654-1.025-1.813-1.638-3.1-1.638
	c-0.443,0-0.881,0.072-1.301,0.214c-1.691,0.572-2.701,2.023-2.702,3.882L68.06,74.188c0,2.765,1.59,4.35,4.362,4.35l21.629,0
	l21.629,0c2.787,0,4.385-1.605,4.385-4.404l0.001-27.634l4.781,5.402C125.94,53,127.333,53.393,128.75,53
	c1.39-0.388,2.428-1.409,2.775-2.731C131.897,48.854,131.44,47.331,130.305,46.194z"/>
</svg>
